<svg version="1.1" xmlns="http://www.w3.org/2000/svg" xmlns:xlink="http://www.w3.org/1999/xlink" width="300" height="300" viewBox="55 55 390 390">
  <g stroke-width="12.5" fill="#FFF" stroke="#3B82F6" transform="scale(0.70) translate(75 130)">
    <polygon points="200,0 200,200 0,200" transform="translate(262 100)"></polygon>
    <polygon points="0,0 200,200 0,200" transform="translate(120 300) rotate(-45)"></polygon>
    <polygon points="0,0 100,0 200,100 100,100" transform="translate(120 299) rotate(-45)"></polygon>
    <polygon points="0,0 100,0 0,100" transform="translate(120 300) rotate(45)"></polygon>
    <polygon points="0,0 200,0 100,100" transform="translate(149 270) rotate(135)"></polygon>
    <rect x="0" y="0" width="100" height="100" transform="translate(495 5) rotate(45)"></rect>
    <polygon points="0,0, 100,0 0,100" transform="translate(395 300)"></polygon>
  </g>
</svg>